<?xml version="1.0" encoding="UTF-8"?>
<svg id="Capa_1" data-name="Capa 1" xmlns="http://www.w3.org/2000/svg" xmlns:xlink="http://www.w3.org/1999/xlink" viewBox="0 0 676.34 533.91">
  <defs>
    <style>
      .cls-1 {
        fill: url(#Degradado_sin_nombre_9);
      }
    </style>
    <linearGradient id="Degradado_sin_nombre_9" data-name="Degradado sin nombre 9" x1="60.93" y1="254.22" x2="942.41" y2="323.61" gradientUnits="userSpaceOnUse">
      <stop offset=".08" stop-color="#d98e00"/>
      <stop offset=".17" stop-color="#dd9c10"/>
      <stop offset=".35" stop-color="#eac33a"/>
      <stop offset=".41" stop-color="#efd24a"/>
      <stop offset=".51" stop-color="#e9bf35"/>
      <stop offset=".68" stop-color="#e0a418"/>
      <stop offset=".84" stop-color="#da9306"/>
      <stop offset=".95" stop-color="#d98e00"/>
    </linearGradient>
  </defs>
  <path class="cls-1" d="M124.85,261.92c33.04-35.66,115.97-93.21,179.02-110.19-23.44,23.36-25.2,36.05-29.12,38.35-10.44,6.14-56.95,12.85-149.9,71.84ZM499.56,238.7c-27.83-25.4-39.4-55.07-41.88-63.47-.37-1.24-1.13-2.33-2.14-3.14-4.55-3.66-9.1-6.51-11.52-9.33-1.21-1.4-3.12-1.96-4.89-1.44-6,1.77-22.81,9.56-32.14,16.05,8.05-10.28,27.26-20.55,26.02-21.44-5.09-3.67-12.84-10.73-13.92-11.4,3.96-16.86-17.19-41.39-44.84-30.25-25.07,10.09-20.11,42.39-10.32,53.4l.56,10.08c-1.55-1.73-6.7-23-30.05-19.94,14.81,7.22,16.17,19.91,16.17,24.92,0,3.57-2.94,11.1-4.63,15.12-.51,1.2.46,2.51,1.76,2.36,5.81-.66,18.92-2.37,26.51-5.18.46-.17.81.41.46.75-11.03,10.55-24.68,20.3-24.68,20.3,0,0-4.93-11.19-14.01-15.27-8.1-3.64-18.06-3.1-18.06-3.1,0,0,.21-9.38,4.32-14.99-7.42,3.41-11.01,12.93-11.01,15.84-13.14,1.21-13.96-5.57-11.91-14.66,6.34-28.07,45.08-41.29,45-43.8-.08-2.51-22.49,4.91-35.15,15.49-20.27,16.95-17.18,22.92-21.39,29.09-4.21,6.16-9.82,14.7-10.82,22.82-1,8.12,2.91,23.51,2.91,23.51,0,0-5.2-24.3,10.05-38.05,1.46-1.32,2.03,10.01,10.69,13.92,10.28,4.64,28.84-4.82,34.54,16.21,4.18,15.42-25,39.39-28.71,39.49-3.71.1-4.65-6.97-7.36-7.06-4.28-.15-12.97,31.08-17.56,32.35-4.59,1.28-3.68-2.83-6.16-3.58-2.48-.75-9.92,9.1-11.13,8.87-1.2-.23,7.22-15.26,8.79-15.79,1.58-.53,4.76,1.24,5.94-1.73,4.95-12.43,13.01-25.24,14.34-27.32.06-.1-.04-.21-.14-.17-4.06,1.48-36.01,9.95-57.25,53.09h77.9c1.14-7.52,6.01-23.82,19.29-31.62.68-.4,1.47.38,1.06,1.06-5.19,8.82-13.61,22.74-13.89,30.56h136.73c1.8,0,2.75-2.1,1.59-3.48-.81-.96-1.54-2.12-2-3.48-.7-2.07-1.13-4.12-1.4-5.75-.32-1.95-2.02-3.37-3.99-3.26-61.29,3.32-92.17-25.88-102.62-44.51-.38-.68.49-1.36,1.07-.84,25.31,22.63,46.07,35.88,104.88,36.31,1.72.01,3.26-1.1,3.8-2.74,4.54-13.83,12.33-21.02,19.84-26.09.44-.3.34-.96-.17-1.12-28.29-9.24-42.27-19.48-54.77-32.32-.95-.98-2.29-1.5-3.65-1.41-19.31,1.24-32.48,1.85-41.85,3.12,13.71-6,30.78-9.33,37.45-11.46-2.6-3.81-7.6-11.9-8.55-18.15,15.33,19.17,56.81,54.19,92.88,52.67ZM367.96,157.51s-4.31-6.86-3.76-12.22c1.35,3.05,4.35,6.52,4.35,6.52,0,0-.54,3.99-.59,5.7ZM369.24,142.75c-.49-.4-.87-.95-.99-1.57-4.09-20.28,19.52-24.77,33.91-18.52.55.24.5,1.04-.08,1.2-13.87,3.77-17.85,14.84-16.62,23.99.11.8-.55,1.5-1.36,1.45-2.66-.16-8.35-1.19-14.87-6.55ZM398.97,170.65c-2.95,2.83-5.63,6.38-6.28,9.5-.08.4-.39.72-.79.77-13.8,1.77-19.97-14.06-16.9-19.8.7-1.32,2.62,5.4,11.98,7.24,3.42.67,8.12.87,11.31.7.85-.05,1.3.99.69,1.58ZM380.01,157.26c-.76-.76-.06-2.05.97-1.74,8.55,2.52,19.4,2.93,29.66-1.85,1.33-.62,2.86-.58,4.18.05.51.24,1.02.46,1.51.66,1.17.48,1.27,2.08.18,2.71-10.14,5.85-28.47,8.13-36.51.17ZM536.09,175.47s-21.05-21.35-29.07-27.26c-3.01-5.21-10.62-24.43-30.69-31.27,1.2,2.48,4.74,7.97,9.07,20.12-5.56-1.35-20.22-1.13-25.56,2.26-3.23-2.33-20.92-8.19-30.22-9.77,5.42,8.42,10.6,17.21,24.43,27.39,8.72-7.35,31.72-11.28,45.7-7.12-6.77.25-27.51,3.41-37.58,14.13,3.41,26.26,36.18,72.16,67.45,93.21-10.02-2.31-21.45-12.13-21.45-12.13,0,0-6.01.4-11.48,1.85,21.05,20.6,52.62,21.8,52.62,21.8,0,0,21.65-12.18,24.56-32.02-36.08-31.87-37.79-61.19-37.79-61.19ZM503.42,190.83c-.19,1.26-1.75,1.75-2.63.82-2.92-3.06-8.24-8.72-11.4-12.69-1.11-1.39.28-3.4,1.97-2.83,6.36,2.13,11.31,6.53,12.11,8.43.55,1.32.29,4.1-.05,6.27ZM517.54,234.52c-.81,1.12-2.35,1.4-3.5.63-1.63-1.09-3.68-2.9-5.14-5.36-.97-1.64-.71-3.75.66-5.07,14.29-13.79,29.78-11.67,36.27-9.91.83.23.78,1.41-.07,1.57-15.29,2.92-22.92,10.76-28.23,18.14ZM547.96,236.98c-2.88-.23-6.93-.4-8.29.3-1.27.66-3.11,3.14-4.42,5.09-.54.81-1.8.46-1.85-.51-.22-4.08-.1-11.07,3.04-12.85,2.62-1.49,8.85,3.28,12.26,6.19.74.64.24,1.85-.74,1.78ZM197.75,279.4c3.96-2.13,11.2-17.43,30.9-32.37.29-.22.1-.68-.26-.61-37.99,8.33-130.08,49.3-134.9,57.99,73.14-27.17,96.53-20.86,104.25-25.01ZM271.19,243.8c-20.34,1.65-51.67,12.24-72.04,57.44h27.91s8.05-16.81,17-27.64c.52-.63-.24-1.51-.94-1.08-5.12,3.18-12.09,9.78-15.26,12.88-.48.47-1.26-.02-1.05-.65,2.19-6.58,11.23-25.74,44.67-39.57.75-.31.49-1.43-.31-1.36ZM307.02,221.16c-3.87,2.17-12.45,7.54-19.22,15.4,0,0,8.15.79,12.42,4.36.73-7.22,5.32-15.3,7.59-18.92.33-.52-.26-1.15-.8-.84ZM268.86,229.3c-2.56-6.87-3.05-14.04-2.53-26.38-67.68,20.8-127.36,56.93-158.73,81.42,39.36-20.56,115.61-50.64,161.26-55.05ZM56.99,373.05c-2.71-.97-6.91-.86-6.91-.86H13.31v68.32h15.98v-25.32h20.8s2.67-.01,5.95-1.03c21.35-6.57,20.87-33.97.96-41.12ZM50.15,402.47h-20.41c-.57,0-1.04-.62-1.04-1.4v-13.9c0-.77.46-1.39,1.03-1.4l20.42-.22h0c6.99,1.74,6.99,15.18,0,16.92ZM118.79,414.65c.59-.13,1.21-.28,1.86-.48,21.35-6.57,20.87-33.97.96-41.12-2.71-.97-6.91-.86-6.91-.86h-36.78v68.32h15.98v-25.32h7.98l15.78,25.32h19.09l-17.97-25.86ZM114.77,402.47h-20.41c-.57,0-1.04-.62-1.04-1.4v-13.9c0-.77.46-1.39,1.03-1.4l20.42-.22h0c6.99,1.74,6.99,15.18,0,16.92ZM185.98,372.18h-22.65c-10.58,0-19.15,8.57-19.15,19.15v30.02c0,10.58,8.57,19.15,19.15,19.15h22.65c10.58,0,19.15-8.57,19.15-19.15v-30.02c0-10.58-8.57-19.15-19.15-19.15ZM190.68,419.6c0,5.35-4.34,9.69-9.69,9.69h-12.78c-5.35,0-9.69-4.34-9.69-9.69v-25.55c0-5.35,4.34-9.69,9.69-9.69h12.78c5.35,0,9.69,4.34,9.69,9.69v25.55ZM249.34,484.06h-12.95c-5.49,0-9.94,4.45-9.94,9.94v20.91c0,5.49,4.45,9.94,9.94,9.94h12.95c5.49,0,9.94-4.45,9.94-9.94v-20.91c0-5.49-4.45-9.94-9.94-9.94ZM249.59,513.61c0,3.55-2.88,6.43-6.43,6.43h-.12c-3.55,0-6.43-2.88-6.43-6.43v-17.57c0-3.55,2.88-6.43,6.43-6.43h.12c3.55,0,6.43,2.88,6.43,6.43v17.57ZM424.01,484.06h-7.17c-7.09,0-12.84,5.75-12.84,12.84v15.13c0,7.09,5.75,12.84,12.84,12.84h7.17c7.09,0,12.84-5.75,12.84-12.84v-15.13c0-7.09-5.75-12.84-12.84-12.84ZM427.15,513.7c0,3.55-2.88,6.43-6.43,6.43h-.12c-3.55,0-6.43-2.88-6.43-6.43v-17.57c0-3.55,2.88-6.43,6.43-6.43h.12c3.55,0,6.43,2.88,6.43,6.43v17.57ZM464.15,484.06h-7.17c-7.09,0-12.84,5.75-12.84,12.84v15.13c0,7.09,5.75,12.84,12.84,12.84h7.17c7.09,0,12.84-5.75,12.84-12.84v-15.13c0-7.09-5.75-12.84-12.84-12.84ZM467.29,513.7c0,3.55-2.88,6.43-6.43,6.43h-.12c-3.55,0-6.43-2.88-6.43-6.43v-17.57c0-3.55,2.88-6.43,6.43-6.43h.12c3.55,0,6.43,2.88,6.43,6.43v17.57ZM504.28,484.06h-7.17c-7.09,0-12.84,5.75-12.84,12.84v15.13c0,7.09,5.75,12.84,12.84,12.84h7.17c7.09,0,12.84-5.75,12.84-12.84v-15.13c0-7.09-5.75-12.84-12.84-12.84ZM507.43,513.7c0,3.55-2.88,6.43-6.43,6.43h-.12c-3.55,0-6.43-2.88-6.43-6.43v-17.57c0-3.55,2.88-6.43,6.43-6.43h.12c3.55,0,6.43,2.88,6.43,6.43v17.57ZM565.94,484.06h-7.17c-7.09,0-12.84,5.75-12.84,12.84v15.13c0,7.09,5.75,12.84,12.84,12.84h7.17c7.09,0,12.84-5.75,12.84-12.84v-15.13c0-7.09-5.75-12.84-12.84-12.84ZM569.08,513.7c0,3.55-2.88,6.43-6.43,6.43h-.12c-3.55,0-6.43-2.88-6.43-6.43v-17.57c0-3.55,2.88-6.43,6.43-6.43h.12c3.55,0,6.43,2.88,6.43,6.43v17.57ZM606.08,484.06h-7.17c-7.09,0-12.84,5.75-12.84,12.84v15.13c0,7.09,5.75,12.84,12.84,12.84h7.17c7.09,0,12.84-5.75,12.84-12.84v-15.13c0-7.09-5.75-12.84-12.84-12.84ZM609.22,513.7c0,3.55-2.88,6.43-6.43,6.43h-.12c-3.55,0-6.43-2.88-6.43-6.43v-17.57c0-3.55,2.88-6.43,6.43-6.43h.12c3.55,0,6.43,2.88,6.43,6.43v17.57ZM646.22,484.06h-7.17c-7.09,0-12.84,5.75-12.84,12.84v15.13c0,7.09,5.75,12.84,12.84,12.84h7.17c7.09,0,12.84-5.75,12.84-12.84v-15.13c0-7.09-5.75-12.84-12.84-12.84ZM649.36,513.61c0,3.55-2.88,6.43-6.43,6.43h-.12c-3.55,0-6.43-2.88-6.43-6.43v-17.57c0-3.55,2.88-6.43,6.43-6.43h.12c3.55,0,6.43,2.88,6.43,6.43v17.57ZM247.55,372.18h-31.02v68.33h31.02c12.65,0,22.91-10.26,22.91-22.91v-22.5c0-12.65-10.26-22.91-22.91-22.91ZM256.01,418.51c0,5.14-4.17,9.31-9.31,9.31h-16.89v-43.03h16.89c5.14,0,9.31,4.17,9.31,9.31v24.41ZM281.97,372.18v68.33h55.93v-12.69h-39.36v-15.21h29.61v-12.45h-29.61v-15.36h39.36v-12.61h-55.93ZM118.5,484.06v40.8h29.02v-7.27h-17.92v-10.53h14.98v-5.76h-14.98v-9.65h17.92v-7.6h-29.02ZM583.84,414.17c21.35-6.57,20.87-33.97.96-41.12-2.71-.97-6.91-.86-6.91-.86h-36.78v68.32h15.98v-25.32h7.98l14.89,25.27h19.09l-17.08-25.81c.59-.13,1.21-.28,1.86-.48ZM577.96,402.47h-20.41c-.57,0-1.04-.62-1.04-1.4v-13.9c0-.77.46-1.39,1.03-1.4l20.42-.22h0c6.99,1.74,6.99,15.18,0,16.92ZM608.29,372.18v68.33h55.93v-12.69h-39.36v-15.21h29.61v-12.45h-29.61v-15.36h39.36v-12.61h-55.93ZM460.5,372.18h-15.74v68.33h15.74v-68.33ZM404.46,427.19v-55.01h-15.74v68.33h46.06v-13.32h-30.31ZM521.89,405.13c5.23-2.41,8.11-8.78,8.11-15.3s-5.6-17.64-20.18-17.64h-38.27v68.33h38.32c17.73,0,21.84-12.65,21.84-19.35s-4.29-14.28-9.81-16.04ZM487.29,385.66h21.47s4.88,1.38,4.88,7.26-6.46,6.32-6.46,6.32h-19.89v-13.57ZM507.54,428.87h-20.25v-16.6h19.89s8.29.21,8.29,8.67-7.93,7.93-7.93,7.93ZM104.58,503.7c-.08-.01-.08-.12,0-.13,7.26-.48,6.76-5.31,6.76-10.04s-4.02-9.1-12.01-9.1h-21.21v40.42h11.54v-17.95c6.79,0,9.08.44,10.49,2.2,1.41,1.76,1.23,15.74,1.23,15.74h11.86l-.77-.65c-.71-.6-1.13-1.48-1.13-2.42v-12.42s-.98-4.7-6.77-5.68ZM101.27,497.87c0,1.86-1.62,3.37-3.62,3.37h-7.98v-11.36h7.98c2,0,3.62,1.51,3.62,3.37v4.62ZM153.86,524.86h9.75v-32.93l7.87,32.93h9.61l8.37-32.93v32.93h10.13v-40.8h-15.24l-7.14,31.31h-.97l-7.58-31.31h-14.8v40.8ZM218,484.06h-9.91v40.8h9.91v-40.8ZM305.87,495.6h11.01c0-5.16-2.11-11.68-11.94-11.68v-3.3h-8.94v3.3c-5.73,0-10.44,4.04-11.41,8-3.18,13,21.88,14.6,21.88,24,0,4.22-5.13,4.04-6.27,4.04s-6.21.31-5.02-7.89c-6.08,0-10.87-.18-10.87-.18,0,8.33,2.06,12.07,12.01,13.75v3.57h8.46v-3.92c4.41,0,12.13-3.04,12.34-10.09.34-11.72-20.98-12.84-21.84-21.34-.34-3.33,2.4-5.1,5.44-5.1,5.59,0,5.33,3.88,5.15,6.83ZM347.42,494.15h11.19v30.71h10.66v-40.65h-7.18c-1.06,7.09-13.44,5.64-14.67,5.64v4.3ZM394.98,518.33h-10.02v6.53h10.02v-6.53ZM536.54,518.33h-10.02v6.53h10.02v-6.53ZM338.17,4.69C159.85,4.69,14.72,151.09,9.82,333.59c0,7.8,6.33,14.13,14.13,14.13h628.45c7.8,0,14.13-6.33,14.13-14.13C661.63,151.09,516.49,4.69,338.17,4.69ZM636.38,318.75H39.97v-11.74C71.99,124.71,201.82,33.66,338.17,33.66s264.56,92.81,298.21,273.34v11.74ZM60.01,484.44h-21.01v40.42h11.61v-17.36h9.48s13.45.42,13.45-11.5-13.53-11.56-13.53-11.56ZM61.82,498.56c0,2-1.62,3.62-3.62,3.62h-7.98v-12.2h7.98c2,0,3.62,1.62,3.62,3.62v4.95Z"/>
</svg>