<?xml version="1.0" encoding="UTF-8"?>
<svg id="Capa_1" data-name="Capa 1" xmlns="http://www.w3.org/2000/svg" xmlns:xlink="http://www.w3.org/1999/xlink" viewBox="0 0 687.03 535.33">
  <defs>
    <style>
      .cls-1 {
        fill: url(#Degradado_sin_nombre_153);
      }
    </style>
    <linearGradient id="Degradado_sin_nombre_153" data-name="Degradado sin nombre 153" x1="743.23" y1="424.25" x2="-135.66" y2="162.43" gradientUnits="userSpaceOnUse">
      <stop offset=".2" stop-color="#c79f0c"/>
      <stop offset=".37" stop-color="#f4cd27"/>
      <stop offset=".41" stop-color="#e0b81b"/>
      <stop offset=".46" stop-color="#cda510"/>
      <stop offset=".49" stop-color="#c79f0c"/>
      <stop offset=".63" stop-color="#e2ba1c"/>
      <stop offset=".74" stop-color="#f4cd27"/>
    </linearGradient>
  </defs>
  <path class="cls-1" d="M128.97,266.36c33.23-35.87,116.64-93.75,180.05-110.83-23.58,23.49-25.35,36.25-29.29,38.57-10.5,6.18-57.27,12.93-150.77,72.26ZM505.83,243.01c-27.99-25.54-39.63-55.39-42.13-63.84-.37-1.25-1.14-2.34-2.15-3.16-4.58-3.68-9.15-6.55-11.59-9.38-1.22-1.41-3.13-1.97-4.92-1.45-6.03,1.78-22.94,9.62-32.33,16.14,8.09-10.34,27.42-20.67,26.18-21.57-5.12-3.69-12.91-10.79-14-11.46,3.98-16.96-17.29-41.63-45.1-30.43-25.21,10.15-20.22,42.63-10.38,53.71l.56,10.13c-1.56-1.74-6.74-23.13-30.22-20.06,14.89,7.26,16.27,20.03,16.27,25.07,0,3.59-2.96,11.16-4.66,15.21-.51,1.21.47,2.52,1.77,2.37,5.84-.66,19.02-2.39,26.66-5.21.46-.17.82.41.46.75-11.09,10.61-24.82,20.42-24.82,20.42,0,0-4.96-11.26-14.09-15.36-8.15-3.67-18.17-3.12-18.17-3.12,0,0,.21-9.43,4.34-15.08-7.46,3.43-11.07,13.01-11.07,15.93-13.22,1.22-14.04-5.6-11.97-14.75,6.38-28.23,45.34-41.53,45.26-44.05-.08-2.52-22.62,4.93-35.35,15.58-20.39,17.05-17.28,23.05-21.52,29.25-4.23,6.2-9.88,14.79-10.89,22.95-1.01,8.17,2.92,23.64,2.92,23.64,0,0-5.23-24.44,10.1-38.27,1.47-1.33,2.04,10.07,10.75,14,10.34,4.67,29.01-4.85,34.74,16.31,4.2,15.51-25.15,39.62-28.88,39.72-3.73.1-4.68-7.01-7.4-7.11-4.31-.15-13.05,31.26-17.66,32.54-4.61,1.29-3.7-2.85-6.2-3.6s-9.98,9.15-11.19,8.92c-1.21-.23,7.26-15.35,8.85-15.88,1.59-.53,4.78,1.24,5.97-1.74,4.98-12.5,13.09-25.38,14.43-27.48.06-.1-.04-.21-.15-.17-4.09,1.49-36.22,10.01-57.58,53.39h78.35c1.14-7.57,6.05-23.95,19.4-31.8.69-.4,1.47.38,1.07,1.07-5.22,8.87-13.69,22.87-13.97,30.73h137.52c1.82,0,2.77-2.11,1.6-3.5-.81-.96-1.55-2.13-2.01-3.5-.7-2.09-1.14-4.14-1.4-5.79-.32-1.96-2.04-3.39-4.02-3.28-61.64,3.34-92.71-26.03-103.21-44.77-.38-.68.49-1.37,1.08-.85,25.46,22.76,46.34,36.09,105.49,36.52,1.73.01,3.28-1.11,3.82-2.76,4.56-13.91,12.4-21.14,19.96-26.24.44-.3.34-.96-.17-1.13-28.45-9.29-42.51-19.59-55.09-32.51-.96-.98-2.3-1.51-3.67-1.42-19.42,1.24-32.66,1.86-42.09,3.14,13.79-6.04,30.96-9.38,37.67-11.52-2.61-3.83-7.64-11.97-8.6-18.26,15.42,19.29,57.14,54.51,93.41,52.97ZM373.48,161.35s-4.34-6.9-3.78-12.29c1.36,3.07,4.37,6.56,4.37,6.56,0,0-.54,4.02-.59,5.73ZM374.76,146.5c-.49-.4-.87-.96-1-1.58-4.11-20.4,19.63-24.92,34.11-18.63.56.24.51,1.05-.08,1.21-13.95,3.79-17.95,14.92-16.71,24.13.11.81-.55,1.51-1.37,1.46-2.67-.16-8.4-1.2-14.96-6.58ZM404.67,174.56c-2.97,2.85-5.66,6.42-6.32,9.56-.08.4-.39.73-.8.78-13.88,1.78-20.08-14.14-17-19.91.71-1.33,2.64,5.43,12.05,7.28,3.44.68,8.17.88,11.37.7.86-.05,1.31,1,.69,1.59ZM385.6,161.1c-.77-.76-.06-2.06.98-1.75,8.6,2.53,19.52,2.95,29.84-1.86,1.34-.62,2.87-.58,4.21.05.52.24,1.03.47,1.52.67,1.17.48,1.28,2.1.18,2.73-10.2,5.88-28.63,8.18-36.72.17ZM542.57,179.41s-21.17-21.47-29.23-27.42c-3.02-5.24-10.69-24.57-30.87-31.45,1.21,2.49,4.76,8.01,9.12,20.24-5.59-1.36-20.34-1.13-25.7,2.27-3.25-2.34-21.04-8.24-30.39-9.83,5.45,8.47,10.66,17.31,24.57,27.54,8.77-7.39,31.9-11.34,45.97-7.16-6.8.25-27.67,3.43-37.8,14.21,3.43,26.41,36.39,72.58,67.84,93.75-10.08-2.32-21.57-12.2-21.57-12.2,0,0-6.05.4-11.54,1.86,21.17,20.72,52.92,21.92,52.92,21.92,0,0,21.77-12.25,24.7-32.21-36.29-32.06-38-61.54-38-61.54ZM509.72,194.86c-.2,1.27-1.76,1.76-2.64.83-2.94-3.07-8.28-8.77-11.47-12.76-1.12-1.4.28-3.42,1.98-2.85,6.4,2.14,11.38,6.57,12.18,8.48.56,1.32.29,4.12-.05,6.31ZM523.92,238.8c-.81,1.13-2.36,1.41-3.52.64-1.64-1.09-3.7-2.92-5.16-5.39-.98-1.65-.72-3.77.66-5.1,14.37-13.87,29.95-11.74,36.48-9.97.84.23.79,1.42-.07,1.58-15.38,2.93-23.05,10.83-28.4,18.24ZM554.51,241.28c-2.89-.23-6.97-.4-8.34.3-1.28.66-3.13,3.16-4.45,5.12-.55.81-1.81.46-1.86-.51-.22-4.11-.1-11.13,3.05-12.92,2.64-1.5,8.9,3.3,12.33,6.23.75.64.24,1.86-.74,1.79ZM202.28,283.94c3.98-2.14,11.26-17.53,31.08-32.56.29-.22.1-.69-.26-.61-38.21,8.38-130.83,49.59-135.68,58.33,73.56-27.33,97.09-20.98,104.85-25.16ZM276.15,248.14c-20.46,1.66-51.97,12.31-72.45,57.77h28.08s8.1-16.91,17.1-27.8c.52-.63-.25-1.52-.94-1.09-5.15,3.2-12.16,9.83-15.34,12.95-.48.47-1.26-.02-1.05-.66,2.21-6.62,11.3-25.89,44.93-39.8.75-.31.5-1.44-.31-1.37ZM312.19,225.36c-3.9,2.18-12.52,7.58-19.33,15.49,0,0,8.2.8,12.5,4.39.73-7.26,5.35-15.39,7.64-19.03.33-.53-.26-1.15-.81-.85ZM273.8,233.55c-2.57-6.91-3.07-14.12-2.54-26.53-68.07,20.92-128.1,57.26-159.65,81.89,39.59-20.68,116.28-50.93,162.19-55.36ZM343.52,7.64C164.17,7.64,18.19,154.88,13.27,338.44c0,7.85,6.36,14.21,14.21,14.21h632.08c7.85,0,14.21-6.36,14.21-14.21C668.84,154.88,522.87,7.64,343.52,7.64ZM643.44,323.51H43.59v-11.81C75.8,128.36,206.38,36.78,343.52,36.78s266.09,93.35,299.93,274.92v11.81ZM45.06,392.06h-21.28v23.19h21.28c6.71,0,9.1-5.89,9.1-10.92s-3.46-12.26-9.1-12.26ZM44.63,409.78h-15.91v-12.02h15.91c2.79,0,4.15,4.34,4.15,6.01s-1.07,6.01-4.15,6.01ZM46.68,384.49h-29.5v59.97h12.07v-21.67h17.43c6.09,0,14.69-3.75,14.69-18.74s-11.27-19.56-14.69-19.56ZM45.06,416.68h-21.28v21.74h-1.43v-47.79h22.72c6.78,0,10.53,8.1,10.53,13.7,0,6.15-3.26,12.36-10.53,12.36ZM407.3,392.06h-21.28v23.19h21.28c6.71,0,9.1-5.89,9.1-10.92s-3.46-12.26-9.1-12.26ZM406.86,409.78h-15.91v-12.02h15.91c2.79,0,4.15,4.34,4.15,6.01s-1.07,6.01-4.15,6.01ZM408.91,384.49h-29.5v59.97h12.07v-21.67h17.43c6.09,0,14.69-3.75,14.69-18.74s-11.27-19.56-14.69-19.56ZM407.3,416.68h-21.28v21.74h-1.43v-47.79h22.72c6.78,0,10.53,8.1,10.53,13.7,0,6.15-3.26,12.36-10.53,12.36ZM103.89,404.32c0-5.12-3.46-12.26-9.1-12.26h-21.28v23.19h21.28c6.71,0,9.1-5.89,9.1-10.92ZM78.45,409.78v-12.02h15.91c2.79,0,4.15,4.34,4.15,6.01s-1.07,6.01-4.15,6.01h-15.91ZM111.1,404.05c0-15.48-11.27-19.56-14.69-19.56h-29.5v59.97h12.07v-21.67h4.32l12.1,21.67h14.38l-11.92-21.74c5.92-.57,13.23-4.83,13.23-18.66ZM99.65,437.32l-1.24.71-12.24-21.35h-12.66v21.74h-1.43v-47.79h22.72c6.78,0,10.53,8.1,10.53,13.7,0,6.15-3.26,12.36-10.53,12.36h-6.97l11.83,20.64ZM145.19,384.49h-11.19c-9.32,0-16.88,7.56-16.88,16.88v26.21c0,9.32,7.56,16.88,16.88,16.88h11.19c9.32,0,16.88-7.56,16.88-16.88v-26.21c0-9.32-7.56-16.88-16.88-16.88ZM156.29,426.53c0,6.36-5.17,11.53-11.53,11.53h-10.51c-6.36,0-11.53-5.17-11.53-11.53v-24.38c0-6.36,5.17-11.53,11.53-11.53h10.51c6.36,0,11.53,5.17,11.53,11.53v24.38ZM144.76,392.05h-10.51c-5.57,0-10.1,4.53-10.1,10.1v24.38c0,5.57,4.53,10.1,10.1,10.1h10.51c5.57,0,10.1-4.53,10.1-10.1v-24.38c0-5.57-4.53-10.1-10.1-10.1ZM149.6,426.94c0,2.32-1.88,4.19-4.19,4.19h-11.72c-2.32,0-4.19-1.88-4.19-4.19v-24.58c0-2.32,1.88-4.19,4.19-4.19h11.72c2.32,0,4.19,1.88,4.19,4.19v24.58ZM604.12,384.49h-11.19c-9.32,0-16.88,7.56-16.88,16.88v26.21c0,9.32,7.56,16.88,16.88,16.88h11.19c9.32,0,16.88-7.56,16.88-16.88v-26.21c0-9.32-7.56-16.88-16.88-16.88ZM615.22,426.53c0,6.36-5.17,11.53-11.53,11.53h-10.51c-6.36,0-11.53-5.17-11.53-11.53v-24.38c0-6.36,5.17-11.53,11.53-11.53h10.51c6.36,0,11.53,5.17,11.53,11.53v24.38ZM603.69,392.05h-10.51c-5.57,0-10.1,4.53-10.1,10.1v24.38c0,5.57,4.53,10.1,10.1,10.1h10.51c5.57,0,10.1-4.53,10.1-10.1v-24.38c0-5.57-4.53-10.1-10.1-10.1ZM608.53,426.94c0,2.32-1.88,4.19-4.19,4.19h-11.72c-2.32,0-4.19-1.88-4.19-4.19v-24.58c0-2.32,1.88-4.19,4.19-4.19h11.72c2.32,0,4.19,1.88,4.19,4.19v24.58ZM194.18,391.9h-17.91v44.41h17.91c5.82,0,10.55-4.73,10.55-10.55v-23.31c0-5.82-4.73-10.55-10.55-10.55ZM198.82,425.97c0,2.33-1.9,4.23-4.25,4.23h-12.23v-32.16h12.23c2.34,0,4.25,1.89,4.25,4.23v23.71ZM195.13,384.49h-25.88v59.97h25.88c8.85,0,16.02-7.17,16.02-16.02v-27.93c0-8.85-7.17-16.02-16.02-16.02ZM206.16,425.76c0,6.61-5.38,11.98-11.98,11.98h-19.34v-47.28h19.34c6.61,0,11.98,5.37,11.98,11.98v23.31ZM231.09,431.32v-10.3h20.29v-13.1h-20.29v-9.99h28.28v-13.44h-39.75v59.97h39.8v-13.13h-28.32ZM256.69,438.16h-31.92v-47.54h29.65v1.43h-28.22v21.76h20.57v1.43h-20.57v21.48h30.49v1.43ZM323.43,414.47l16.53-29.99h-13.79l-9.82,18.51-9.82-18.51h-13.79l16.53,29.99h0l-16.53,29.99h13.79l9.82-18.51,9.82,18.51h13.79l-16.53-29.99h0ZM328.52,436.75l-12.13-21.67-12.13,21.67-1.25-.7,12.56-22.43-12.18-21.75,1.25-.7,11.75,20.99,11.75-20.99,1.25.7-12.18,21.75,12.56,22.43-1.25.7ZM458.99,384.49v41.23c0,3.1-2.52,5.62-5.62,5.62h-7.42c-3.1,0-5.62-2.52-5.62-5.62v-41.23h-11.87v42.52c0,9.64,7.81,17.45,17.45,17.45h7.5c9.64,0,17.45-7.81,17.45-17.45v-42.52h-11.87ZM465.59,426.86c0,5.84-4.75,10.6-10.6,10.6h-10.73c-5.84,0-10.6-4.75-10.6-10.6v-36.23h1.43v36.23c0,5.05,4.11,9.16,9.16,9.16h10.73c5.05,0,9.16-4.11,9.16-9.16v-36.23h1.43v36.23ZM510.33,384.49v34.43l-18.68-34.43h-13.5v59.97h12.68v-36.92l20.32,36.92h12.43v-59.97h-13.26ZM517.66,438.17h-3.97l-25.32-45.93h-2.79v45.74h-1.43v-47.17h5.07l25.32,45.93h1.7v-46.11h1.43v47.54ZM529.57,384.49v13.6h13.22v46.37h12.97v-46.37h13.22v-13.6h-39.4ZM564.48,392.08h-14.49v46.16h-1.43v-46.16h-14.49v-1.43h30.42v1.43ZM652.91,407.97c-6.76,0-9.4.32-11.2-1.38-3.37-3.18-1.2-9.02,2.51-9.02h22.23v-13.09h-21.89c-9.36,0-16.94,6.78-16.94,16.76s4.99,19.66,16.82,19.66c5.18,0,7.13.05,8.48.05,2.8,0,4.73,2.09,4.73,4.95s-1.88,4.57-4.65,4.57h-23.69v13.97h22.15c12.92,0,18.4-8.18,18.4-18.27s-5.01-18.21-16.94-18.21ZM651.27,437.95h-18.4v-1.43h18.4c10.37,0,10.89-9.18,10.89-11.02,0-3.85-1.45-10.31-11.2-10.31-7.57,0-17.64-1.3-17.64-12.5,0-9.79,6.22-11.99,8.4-11.99h20.89v1.43h-20.89c-1.81,0-6.96,1.94-6.96,10.56,0,7.66,5,11.07,16.21,11.07s12.63,8.21,12.63,11.74c0,5.74-3.23,12.45-12.33,12.45ZM211.99,486.47h-11.4c-4.83,0-8.75,3.92-8.75,8.75v18.41c0,4.83,3.92,8.75,8.75,8.75h11.4c4.83,0,8.75-3.92,8.75-8.75v-18.41c0-4.83-3.92-8.75-8.75-8.75ZM212.21,512.49c0,3.13-2.54,5.66-5.66,5.66h-.1c-3.13,0-5.66-2.54-5.66-5.66v-15.46c0-3.13,2.54-5.66,5.66-5.66h.1c3.13,0,5.66,2.54,5.66,5.66v15.46ZM96.81,486.47v35.92h25.54v-6.4h-15.77v-9.27h13.19v-5.07h-13.19v-8.49h15.77v-6.69h-25.54ZM84.55,503.77c-.07-.01-.07-.11,0-.11,6.39-.43,5.95-4.68,5.95-8.84s-3.54-8.01-10.58-8.01h-18.67v35.59h10.16v-15.8c5.97,0,7.99.39,9.23,1.94,1.24,1.55,1.09,13.86,1.09,13.86h10.44l-.68-.57c-.63-.53-.99-1.31-.99-2.13v-10.93s-.86-4.14-5.96-5ZM81.64,498.64c0,1.64-1.43,2.97-3.19,2.97h-7.03v-10h7.03c1.76,0,3.19,1.33,3.19,2.97v4.06ZM127.94,522.39h8.58v-28.99l6.93,28.99h8.46l7.37-28.99v28.99h8.92v-35.92h-13.42l-6.28,27.57h-.85l-6.67-27.57h-13.03v35.92ZM184.4,486.47h-8.73v35.92h8.73v-35.92ZM270.75,496.29h10.29c0-4.82-1.98-10.91-11.15-10.91v-3.09h-8.35v3.09c-5.35,0-9.75,3.77-10.66,7.48-2.97,12.14,20.44,13.63,20.44,22.42,0,3.94-4.79,3.77-5.86,3.77s-5.8.29-4.69-7.37c-5.68,0-10.15-.16-10.15-.16,0,7.78,1.92,11.28,11.22,12.84v3.33h7.9v-3.66c4.12,0,11.33-2.84,11.52-9.42.32-10.95-19.59-11.99-20.4-19.93-.32-3.11,2.24-4.76,5.08-4.76,5.22,0,4.98,3.62,4.81,6.38ZM45.32,486.81h-18.5v35.58h10.22v-15.28h8.35s11.84.37,11.84-10.12-11.92-10.18-11.92-10.18ZM46.91,499.24c0,1.76-1.43,3.19-3.19,3.19h-7.03v-10.74h7.03c1.76,0,3.19,1.43,3.19,3.19v4.36ZM336.07,486.54h-13.23l-11.7,35.53h9.6l2.28-7.13h12.87l2.28,7.13h9.6l-11.7-35.53ZM331.37,509.57h-7.19l5.28-15.83,5.28,15.83h-3.36ZM574,486.54h-13.23l-11.7,35.53h9.6l2.28-7.13h12.87l2.28,7.13h9.6l-11.7-35.53ZM569.3,509.57h-7.19l5.28-15.83,5.28,15.83h-3.36ZM383.11,498.41v-2.12c0-5.39-4.37-9.76-9.76-9.76h-11.75c-5.39,0-9.76,4.37-9.76,9.76v16.01c0,5.39,4.37,9.76,9.76,9.76h11.75c5.39,0,9.76-4.37,9.76-9.76v-3.47h-9.35v3.13c0,2.63-2.13,4.76-4.76,4.76h-2.61c-2.63,0-4.76-2.13-4.76-4.76v-15.16c0-2.63,2.13-4.76,4.76-4.76h2.64c2.63,0,4.76,2.13,4.76,4.76v1.61h9.31ZM410.07,486.54v26.49c0,1.77-1.43,3.2-3.2,3.2h-3.89c-1.77,0-3.2-1.43-3.2-3.2v-26.49h-9.89v27.15c0,4.63,3.75,8.38,8.38,8.38h13.41c4.63,0,8.38-3.75,8.38-8.38v-27.15h-9.98ZM499.97,486.54v26.49c0,1.77-1.43,3.2-3.2,3.2h-3.89c-1.77,0-3.2-1.43-3.2-3.2v-26.49h-9.89v27.15c0,4.63,3.75,8.38,8.38,8.38h13.41c4.63,0,8.38-3.75,8.38-8.38v-27.15h-9.98ZM463.73,486.54h-7.59l-6.95,24.76h-.44l-6.95-24.76h-14.16v35.53h8.71v-28.2l8.24,28.2h8.76l8.24-28.2v28.2h8.71v-35.53h-6.57ZM527.54,516.66v-30.12h-9.26v35.53h27.76v-5.4h-18.5ZM612,486.54h-20.99c-.31,0-.56.25-.56.56v34.4c0,.31.25.56.56.56h20.99c5.33,0,9.65-4.32,9.65-9.65v-16.22c0-5.33-4.32-9.65-9.65-9.65ZM611.93,511.81c0,3.03-2.46,5.48-5.48,5.48h-6.03v-25.6h6.03c3.03,0,5.48,2.46,5.48,5.48v14.63ZM650.78,486.43h-11.35c-5.21,0-9.44,4.23-9.44,9.44v16.65c0,5.21,4.23,9.44,9.44,9.44h11.35c5.21,0,9.44-4.23,9.44-9.44v-16.65c0-5.21-4.23-9.44-9.44-9.44ZM651.27,511.79c0,3.26-2.76,5.91-6.17,5.91s-6.17-2.65-6.17-5.91v-14.74c0-3.26,2.76-5.91,6.17-5.91s6.17,2.65,6.17,5.91v14.74Z"/>
</svg>